<?xml version="1.0" encoding="utf-8"?>
<!-- Generator: Adobe Illustrator 26.0.3, SVG Export Plug-In . SVG Version: 6.00 Build 0)  -->
<svg version="1.1" id="Layer_1" xmlns="http://www.w3.org/2000/svg" xmlns:xlink="http://www.w3.org/1999/xlink" x="0px" y="0px"
	 viewBox="0 0 1314.79 900.94" style="enable-background:new 0 0 1314.79 900.94;" xml:space="preserve">
<style type="text/css">
	.st0{fill:#0885C2;}
	.st1{fill:#ED334E;}
	.st2{fill:#FBB132;}
	.st3{fill:#1C8B3C;}
	.st4{fill:#FFFFFF;}
</style>
<g id="g3013" transform="matrix(1.8172681,0,0,1.8172681,146.30016,794.54351)">
	<path id="circle3015" class="st0" d="M54.27-247.97c-57.75,0-104.76,47.01-104.76,104.76S-3.48-38.45,54.27-38.45
		s104.76-47.01,104.76-104.76S112.01-247.97,54.27-247.97z M54.27-229.54c47.79,0,86.33,38.54,86.33,86.33s-38.54,86.33-86.33,86.33
		s-86.33-38.54-86.33-86.33S6.48-229.54,54.27-229.54z"/>
	<path id="circle3017" d="M281.24-247.97c-57.75,0-104.76,47.01-104.76,104.76S223.5-38.45,281.24-38.45S386-85.46,386-143.21
		S338.99-247.97,281.24-247.97z M281.24-229.54c47.79,0,86.33,38.54,86.33,86.33s-38.54,86.33-86.33,86.33s-86.33-38.54-86.33-86.33
		S233.46-229.54,281.24-229.54z"/>
	<path id="circle3019" class="st1" d="M508.22-247.97c-57.75,0-104.76,47.01-104.76,104.76S450.47-38.45,508.22-38.45
		s104.76-47.01,104.76-104.76S565.97-247.97,508.22-247.97z M508.22-229.54c47.79,0,86.33,38.54,86.33,86.33
		s-38.54,86.33-86.33,86.33s-86.33-38.54-86.33-86.33S460.43-229.54,508.22-229.54z"/>
	<path id="circle3021" class="st2" d="M167.75-150.97C110.01-150.97,63-103.96,63-46.21S110.01,58.55,167.75,58.55
		S272.51,11.54,272.51-46.21S225.5-150.97,167.75-150.97z M167.75-132.54c47.79,0,86.33,38.54,86.33,86.33s-38.54,86.33-86.33,86.33
		S81.43,1.57,81.43-46.21S119.97-132.54,167.75-132.54z"/>
	<path id="circle3023" class="st3" d="M394.73-150.97c-57.75,0-104.76,47.01-104.76,104.76S336.98,58.55,394.73,58.55
		c57.75,0,104.76-47.01,104.76-104.76S452.48-150.97,394.73-150.97z M394.73-132.54c47.79,0,86.33,38.54,86.33,86.33
		s-38.54,86.33-86.33,86.33S308.4,1.57,308.4-46.21S346.94-132.54,394.73-132.54z"/>
	<path id="path3025" class="st0" d="M138.07-206.07l-14.74,11.06c23.05,30.73,23.05,72.86,0,103.59l14.74,11.06
		C165.98-117.57,165.98-168.85,138.07-206.07z"/>
	<path id="path3027" d="M365.05-206.07l-14.74,11.06c23.05,30.73,23.05,72.86,0,103.59l14.74,11.06
		C392.96-117.57,392.96-168.85,365.05-206.07z M229.45-74.15l-11.06,14.74c18.13,13.6,40.19,20.95,62.86,20.95v-18.43
		C262.56-56.88,244.39-62.94,229.45-74.15z"/>
	<path id="path3029" class="st1" d="M456.42-74.15l-11.06,14.74c18.13,13.6,40.19,20.95,62.86,20.95v-18.43
		C489.54-56.88,471.37-62.94,456.42-74.15z"/>
</g>
<g>
	<g>
		<path class="st4" d="M710.7,192.74l0.88-0.27l26.14-8.16l0.56-0.17l0.12-0.57c2.51-11.62,7.5-42.55-0.32-78.63
			c-11.21-51.67-24.56-60-25.13-60.33l-0.7-0.41l-0.55,0.61c-5.66,6.29-14.35,36.87-15.28,75.71c-0.75,31.65,9.49,60.46,13.93,71.37
			L710.7,192.74z"/>
		<path class="st4" d="M843.76,158.35l0.82-0.18l22.85-4.99l0.55-0.12l0.18-0.53c3.01-8.58,9.42-31.76,4.08-61.58
			c-6.29-35.11-18.94-50.79-23.29-53.87l-0.79-0.56l-0.59,0.77c-4.78,6.27-12.39,29.74-14.35,62.28c-1.52,25.04,5.75,47.09,10.21,58
			L843.76,158.35z"/>
		<path class="st4" d="M407.61,353.01l-0.09-1.91l-1.52,1.16c-23.13,17.65-81.21,66.03-120.82,133.75l-0.24,0.41l0.17,0.45
			l18.35,48.91l0.81,2.15l1.03-2.05c16.44-32.93,59.42-113.68,103.34-152.38l0.36-0.32l-0.02-0.48L407.61,353.01z"/>
		<path class="st4" d="M642.86,216.02l0.88-0.33l28.99-10.88l0.56-0.21l0.08-0.59c1.54-10.97,5.76-49.92-4.37-90.78
			c-11.78-47.53-23.85-60.97-28.59-61.43l-1.1-0.11v0.68c-5.67,5.79-15.25,37.47-15.14,83.27c0.07,34.83,12.83,67.21,18.31,79.52
			L642.86,216.02z"/>
		<path class="st4" d="M570.62,245.79l0.43,0.85l0.87-0.39l30.69-13.69l0.53-0.24l0.06-0.58c1.16-11.84,3.94-53.87-8.89-97.39
			c-15.06-51.14-28.85-64.65-34.04-64.65h-0.06h-0.36l-0.28,0.23c-3.34,2.75-7.04,13.65-9.64,28.44
			c-2.25,12.79-4.67,33.96-3.39,62.17C548.26,198.09,563.96,232.67,570.62,245.79z"/>
		<path class="st4" d="M497.57,280.9l0.47,0.83l0.85-0.43l31.46-15.85l0.52-0.26l0.03-0.58c0.69-12.4,1.76-56.34-13.52-101.33
			c-22.15-65.17-37.53-65.92-38.17-65.92h-0.09h-0.07l-0.07,0.01l-0.15,0.02l-0.29,0.04l-0.22,0.19
			c-6.67,5.68-13.9,46.57-9.61,95.27C472.18,232.15,490.05,267.51,497.57,280.9z"/>
		<path class="st4" d="M1083.8,106.58l1.02-0.3l21.84-6.46l0.53-0.16l0.15-0.53c1.99-7.05,4.96-21.42,2.52-38.45
			c-3.01-20.94-9.48-31.56-12.83-34.53l-0.68-0.61l-0.67,0.62c-4.87,4.56-14.56,20.82-15.97,39.46
			c-1.14,15.25,1.92,31.56,3.85,39.92L1083.8,106.58z"/>
		<path class="st4" d="M1185.91,71.32l0.37,1.1l1.03-0.52l14.79-7.47l0.54-0.27l0.01-0.61c0.06-4.42-0.31-13.5-3.44-24.6
			c-3.3-11.77-8.84-19.48-12.58-22.51l-0.97-0.79l-0.55,1.12c-2.27,4.6-5.41,15.89-4.73,28.13
			C1180.94,55.14,1184.09,65.85,1185.91,71.32z"/>
		<path class="st4" d="M1139.28,89.54l1.03-0.39l15.96-6.01l0.53-0.2l0.1-0.56c1.16-6.36,2.7-19.09-0.06-32.78
			c-3.7-18.33-11.53-26.36-13.06-27.79l-0.9-0.84l-0.64,1.05c-3.14,5.17-7.91,18.21-8.2,32.92c-0.22,11.7,2.57,24.69,4.94,33.53
			L1139.28,89.54z"/>
		<path class="st4" d="M1224.67,51.91l1.37-0.79l12.76-7.31l0.29-0.17l0.13-0.31c0.94-2.2,2.53-7.26,2.66-16.38
			c0.17-11.18-2.98-17.74-3.94-19.48l-0.68-1.22l-0.94,1.03c-2.96,3.26-8.58,11.33-10.84,20.87c-1.33,5.58-1.64,13.05-0.95,22.17
			L1224.67,51.91z"/>
		<path class="st4" d="M970.95,133.54l0.86-0.18l21.3-4.45l0.58-0.12l0.17-0.56c2.12-6.85,6.56-25.38,1.98-49.4
			c-5.03-26.46-13.87-40.43-18.29-44.52l-0.82-0.75l-0.66,0.89c-4.71,6.3-11.9,25.85-13.14,49.56c-1.06,20.45,4.38,39.3,7.72,48.72
			L970.95,133.54z"/>
		<path class="st4" d="M908.68,145.17l0.85-0.18l22.27-4.75l0.52-0.11l0.2-0.5c2.66-6.71,8.44-25.24,4.51-52.24
			c-4.19-28.78-14.46-47.18-20.34-52.53l-0.85-0.77l-0.65,0.95c-4.08,5.97-11.56,26.54-14.23,56.31c-2.07,22.84,3.75,43.01,7.41,53
			L908.68,145.17z"/>
		<path class="st4" d="M1028.89,120.76l0.85-0.19l21.57-4.82l0.57-0.13l0.17-0.57c1.9-6.45,5.94-23.7,2.52-44.51
			c-3.84-23.41-12.38-37.57-17.19-41.38l-0.72-0.57l-0.63,0.67c-4.84,5.13-14.24,24.05-15.11,46.53
			c-0.71,18.61,4.5,35.65,7.66,44.15L1028.89,120.76z"/>
		<path class="st4" d="M458.78,303.46l0-0.57c-0.02-12.85-1.48-58.32-19.46-103.99c-25.57-64.94-41.09-65.68-41.74-65.68
			c-0.19,0-0.34,0.02-0.51,0.06l-0.27,0.06l-0.2,0.2c-3.22,3.17-5.95,15.22-7.13,31.45c-1.02,14.04-1.32,37.18,3.04,67.65
			c5.76,40.32,25.67,75.7,33.97,89.04l0.52,0.84l0.84-0.51l30.47-18.26L458.78,303.46z"/>
		<path class="st4" d="M778.59,173.59l0.81-0.21l25.44-6.55l0.59-0.15l0.14-0.59c2.22-9.48,6.62-35.07-0.49-67.73
			c-8.7-39.95-21.52-56.29-25.73-59.22l-0.79-0.55l-0.58,0.76c-5.19,6.84-12.81,34.81-13.6,69.55
			c-0.67,29.05,9.47,54.38,13.87,63.93L778.59,173.59z"/>
		<path class="st4" d="M1113.87,132.17l-0.41-0.44l-0.58,0.16l-21.45,5.97l-0.96,0.27l0.27,0.96c2.33,8.38,7.48,24.36,15.86,37.32
			c10.18,15.7,26.47,25.32,32.93,26.98l0.88,0.23l0.31-0.86c1.51-4.23,2.11-16.66-5.28-36.45
			C1129.39,150.09,1119.33,137.96,1113.87,132.17z"/>
		<path class="st4" d="M1057.79,146.89l-0.4-0.39l-0.54,0.14l-20.56,5.3l-0.86,0.22l0.12,0.88c1.25,9.44,4.8,27.63,14.55,43.48
			c11.77,19.13,29.25,31.01,36,33.12l0.88,0.27l0.35-0.85c2.31-5.69,2.8-22.24-5.35-44.5
			C1074.64,164.55,1062.62,151.55,1057.79,146.89z"/>
		<path class="st4" d="M1167.24,112.68l-0.46-0.59l-0.7,0.28l-20.82,8.35l-0.9,0.36l0.33,0.91c2.79,7.7,8.69,22.09,16.89,31.84
			c9.56,11.37,22.39,19.02,28.23,21.16l1.14,0.42l0.19-1.2c0.93-5.76,0.59-20.66-7.32-35.78
			C1177.5,126.34,1170.72,117.11,1167.24,112.68z"/>
		<path class="st4" d="M1307.66,12.94h-0.01c-6.03,0-16.19,2.07-25.29,6.69c-9.72,4.92-16.43,14.61-18.87,18.55l-0.24,0.39
			l0.14,0.44l2.27,7.26l0.29,0.92l0.93-0.26c6.6-1.83,18.91-6.05,27.27-13.85c9.83-9.19,13.37-16.18,14.44-18.76l0.57-1.38H1307.66z
			"/>
		<path class="st4" d="M998.94,161.28l-0.4-0.45l-0.59,0.14l-22.73,5.5l-0.86,0.21l0.11,0.88c1.29,10.83,5.28,31.72,17.46,49.98
			c15.51,23.25,33.8,36.46,40.23,39.22l1.08,0.46l0.29-1.14c1.53-6.06,1.46-23.34-8.47-49.63
			C1015.77,181.88,1003.7,166.68,998.94,161.28z"/>
		<path class="st4" d="M1266.35,76.1c-7.12-5.15-12.34-8.24-15.46-9.92l-0.47-0.26l-0.47,0.25l-14.32,7.68l-1.18,0.63l0.95,0.95
			c4.26,4.29,12.5,11.97,19.78,15.12c6.94,2.99,15.18,4.05,20.57,4.05c1.17,0,2.34-0.06,3.48-0.17l1.27-0.13l-0.42-1.2
			C1279.27,90.88,1275.94,83.04,1266.35,76.1z"/>
		<path class="st4" d="M544.62,427.71c-22.66-42.28-54.46-74.57-67.08-86.49l-0.56-0.53l-0.65,0.4l-33.83,20.87l-0.66,0.41
			l0.23,0.74c4.84,15.54,19.15,55.12,47.36,86.78c15.3,17.16,32.55,33.17,48.59,45.06c14.03,10.4,25.71,16.61,31.27,16.61h0.08h0.43
			l0.3-0.32c1.84-1.96,2.8-9.21-0.55-23.22C566.84,476.68,560.31,457,544.62,427.71z"/>
		<path class="st4" d="M1213.38,87.2l-0.52-0.63l-0.72,0.38l-19.18,10.16l-0.8,0.43l0.35,0.84c2.69,6.52,8.38,18.73,16.25,27.21
			c9.68,10.42,22.38,17.78,28.12,19.97l1.29,0.49l0.07-1.37c0.33-6.47-2.05-21.83-9.86-35.49
			C1222.6,99.11,1217.04,91.67,1213.38,87.2z"/>
		<path class="st4" d="M683.98,242.9l-0.46-0.52l-0.65,0.25l-25.43,9.92l-0.77,0.3l0.15,0.81c2.38,12.82,10.06,45.44,29.82,71.48
			c25.43,33.55,51.09,52.22,58.3,53.25l0.65,0.09l0.34-0.56c1.22-2,6.29-14.34-13.91-61.09C716.94,281.94,693.4,253.51,683.98,242.9
			z"/>
		<path class="st4" d="M669.71,343.04c-17.9-37.08-41.38-65.24-50.65-75.63l-0.51-0.57l-0.68,0.33l-32.43,15.89l-0.75,0.37l0.22,0.8
			c4.13,14.82,16.23,52.28,39.42,80.11c30.27,36.36,52.61,52.64,61.32,52.64c0.51,0,0.8-0.08,0.92-0.13l0.1-0.04l0.09-0.06
			c2.66-1.79,3.31-9.68,1.66-20.1C686.84,386.56,682.29,369.07,669.71,343.04z"/>
		<path class="st4" d="M938.37,175.17l-0.38-0.35l-0.51,0.11l-22.19,4.81l-0.89,0.19l0.11,0.9c1.33,11.3,5.45,33.36,18.17,54.04
			c15.5,25.2,32.89,42.38,40.3,46.53l1.05,0.59l0.39-1.14c2.63-7.69,3.01-29.44-6.72-57.84
			C958.31,195.64,944.06,180.44,938.37,175.17z"/>
		<path class="st4" d="M548.81,302.8l-0.52-0.47l-0.62,0.33l-30.89,16.43l-0.7,0.37l0.21,0.77c3.66,13.48,14.9,48.13,40.23,78.58
			c18.86,22.68,35.52,37.24,46.18,45.46c12.26,9.46,22.88,15.35,27.71,15.36l0.33,0l0.27-0.2c0.57-0.42,1.07-1.2,1.46-2.31
			c1.43-4.01,4.16-21.02-20.54-71.59C591.82,344.39,561.09,313.97,548.81,302.8z"/>
		<path class="st4" d="M751.96,217.97l-0.43-0.5l-0.63,0.2l-26.27,8.26l-0.77,0.24l0.08,0.81c1.05,10.72,5.18,38.62,20.92,66.01
			c19.37,33.69,41.62,56.4,49.59,59.21l0.77,0.27l0.42-0.7c0.34-0.56,8.08-14.24-6.76-65C778.62,251.73,759.64,226.99,751.96,217.97
			z"/>
		<path class="st4" d="M876.24,189.16l-0.42-0.42l-0.57,0.17l-22.23,6.55l-0.77,0.23l0.05,0.8c0.65,9.81,3.78,35.12,18.77,58.31
			c18.76,28.99,37.82,46.9,45.36,50.35l0.9,0.41l0.42-0.9c3.1-6.64,3.79-28.86-7.57-60.26
			C899.31,214.32,882.83,195.75,876.24,189.16z"/>
		<path class="st4" d="M817.35,202.44l-0.42-0.5l-0.63,0.18l-25.2,7.26l-0.77,0.22l0.04,0.8c0.62,11,3.75,39.28,19.34,64.19
			c18.58,29.67,39.56,50.03,47.57,53.32l0.9,0.37l0.39-0.89c2.1-4.71,4.68-25.45-8.35-64.35
			C839.52,231.11,823.67,210.02,817.35,202.44z"/>
	</g>
	<g>
		<path d="M1056.8,121.09c0,0,8.92-22.19,4.1-51.58c-5.01-30.53-17.74-47.58-24.59-47.58c-0.24,0-0.46,0.02-0.69,0.06
			c-6.52,1.2-20.02,25.35-21.09,53.55c-1.07,28.22,10.53,52.64,10.53,52.64L1056.8,121.09z M1021.92,75.84L1021.92,75.84
			c0.88-22.77,10.36-41.14,14.84-45.89c4.21,3.34,12.91,16.92,16.82,40.76c3.34,20.3-0.43,37.05-2.5,44.07l-21.57,4.82
			C1026.42,111.27,1021.22,94.38,1021.92,75.84z"/>
		<path d="M685.26,234.82l-35.73,13.95c0,0,5.5,45.33,32,80.26c24.71,32.59,53.14,55.85,64.11,55.85c0.79,0,1.48-0.12,2.08-0.38
			c9.12-3.74,9.67-25.08-9.83-70.2C718.41,269.18,685.26,234.82,685.26,234.82z M745.08,377.42c-7.04-1-32.41-19.58-57.65-52.87
			c-19.6-25.84-27.25-58.21-29.64-71.06l25.43-9.92c8.7,9.79,32.68,38.51,47.88,73.68C751.2,363.73,746.13,375.71,745.08,377.42z"/>
		<path d="M753.54,210.12l-36.4,11.45c0,0,0.68,37.27,22.15,74.61c20.62,35.86,46.22,62.7,56.25,62.7c0.41,0,0.79-0.05,1.15-0.14
			c9.25-2.37,11.86-27.5-1.67-73.75C781.49,238.75,753.54,210.12,753.54,210.12z M794.77,351.26c-7.02-2.48-28.89-23.7-49.05-58.77
			c-15.52-27-19.68-54.28-20.79-65.61l26.27-8.26c7.34,8.61,26.46,33.38,36.71,68.44C800.48,330.09,796.91,347.71,794.77,351.26z"/>
		<path d="M495.57,290.13L537,269.28c0,0,5.28-52.66-13.56-108.07c-17.17-50.53-33.23-70.25-44.24-70.25
			c-1.05,0-2.06,0.17-3.02,0.54c-10.75,3.95-18.46,49.95-13.86,101.96C466.92,245.47,495.57,290.13,495.57,290.13z M478.97,98.38
			l0.15-0.02h0.09c0.16,0,15.31,0.74,37.23,65.24c15.14,44.56,14.2,87.86,13.47,100.95l-31.46,15.85
			c-7.54-13.42-25.28-48.62-28.74-87.61C465.25,142.34,473.11,103.38,478.97,98.38z"/>
		<path d="M819.05,194.67l-35.22,10.13c0,0-0.92,39,20.46,73.18c20.42,32.62,45.07,56.76,54.53,56.76c0.46,0,0.87-0.05,1.25-0.16
			c8.52-2.5,10.54-30.86-3.78-73.58C841.98,218.29,819.05,194.67,819.05,194.67z M857.67,326.97c-7.14-2.93-27.7-21.94-47.1-52.92
			c-15.4-24.6-18.55-52.29-19.19-63.71l25.2-7.26c6.39,7.67,22.07,28.58,32.7,60.27C861.73,300.52,860.04,321.64,857.67,326.97z"/>
		<path d="M877.51,181.55l-31.79,9.39c0,0-0.89,35.05,19.97,67.32c19.98,30.89,43.68,53.86,52.45,53.86c0.38,0,0.75-0.04,1.07-0.13
			c7.86-2.22,11.53-29.6-2.99-69.76C901.7,202.07,877.51,181.55,877.51,181.55z M916.86,304.25c-7.03-3.22-26.11-20.89-44.94-49.99
			c-14.7-22.75-17.91-47.29-18.61-57.84l22.23-6.55c6.51,6.52,22.9,24.96,33.72,54.89C920.86,276.84,919.63,298.31,916.86,304.25z"
			/>
		<path d="M1112.25,104.84c0,0,7.59-19.73,3.95-45.09c-3.78-26.3-13.5-40.84-20.09-40.84c-0.23,0-0.46,0.01-0.69,0.07
			c-6.04,0.97-20.29,22.23-22.09,46.16c-1.8,23.93,5.96,49.46,5.96,49.46L1112.25,104.84z M1080.71,65.7
			c1.42-18.73,11.22-34.66,15.66-38.81c3.09,2.74,9.51,13.04,12.51,33.92c2.47,17.2-0.72,31.75-2.5,38.04l-21.84,6.46
			C1082.48,96.43,1079.59,80.59,1080.71,65.7z"/>
		<path d="M936.81,145.72c0,0,12-21.91,6.58-59.23c-5.29-36.27-20.51-59.26-28.04-59.26c-0.22,0-0.43,0.02-0.63,0.06
			c-7.13,1.36-17.11,29.85-20.13,63.5c-3.02,33.64,10.19,61.77,10.19,61.77L936.81,145.72z M901.97,91.44
			c2.57-28.69,9.82-49.63,14.06-55.83c5.19,4.73,15.74,22.57,20.02,51.93c3.88,26.68-1.77,44.95-4.45,51.72l-22.27,4.75
			C905.92,134.7,899.9,114.38,901.97,91.44z"/>
		<path d="M477.73,332.69l-43.41,26.78c0,0,13.8,53.7,50.32,94.68c33.53,37.62,70.54,63.83,84.63,63.83c1.27,0,2.33-0.21,3.2-0.64
			c10.88-5.31,6.77-38.57-22.21-92.65C521.29,370.61,477.73,332.69,477.73,332.69z M569.36,510.56h-0.08
			c-10.19,0-45.23-23.33-79.11-61.34c-28.37-31.84-42.74-72.25-47.15-86.41l33.83-20.87c11.25,10.63,43.95,43.46,66.88,86.24
			C572.56,481.98,572.6,507.12,569.36,510.56z"/>
		<path d="M445.29,196.56c-19.77-50.2-36.7-69.74-47.71-69.74c-1.22,0-2.43,0.25-3.54,0.76c-10.51,4.73-15.5,52.62-7.87,105.98
			c7.62,53.34,38.82,97.62,38.82,97.62l40.15-24.06C465.13,307.12,467.32,252.5,445.29,196.56z M427.31,321.16
			c-8.33-13.39-28.09-48.55-33.83-88.65c-7.75-54.16-1.6-92.93,3.81-98.25c0.09-0.02,0.16-0.03,0.28-0.03
			c0.15,0,15.5,0.75,40.81,65.05c17.84,45.3,19.37,90.3,19.39,103.62L427.31,321.16z"/>
		<path d="M872.69,158.59c0,0,13.05-28.55,5.86-68.77c-6.94-38.72-22.66-59.89-30.88-59.89c-0.31,0-0.62,0.03-0.91,0.09
			c-7.77,1.66-17.74,32.71-19.93,69.16c-2.2,36.46,13.22,66.52,13.22,66.52L872.69,158.59z M834.23,99.63
			c1.96-32.57,9.7-55.89,14.15-61.73c4.65,3.3,16.76,19.04,22.88,53.23c5.31,29.67-1.14,52.78-4.04,61.07l-22.85,4.99
			C840.38,147.45,832.69,125.03,834.23,99.63z"/>
		<polygon points="415.54,386.02 415.54,386.02 415.54,386.02 		"/>
		<path d="M998.51,134.33c0,0,10.04-23.08,3.64-56.71c-6.17-32.43-18.92-50.89-25.83-50.89c-0.25,0-0.5,0.02-0.73,0.08
			c-6.59,1.4-17.45,26.35-19.03,56.85c-1.59,30.49,10.43,57.26,10.43,57.26L998.51,134.33z M963.94,84.04
			c1.28-24.6,8.79-43.46,12.94-49.01C981,38.84,989.83,52.52,994.87,79c4.49,23.57,0.28,41.68-1.96,48.92l-21.3,4.45
			C968.41,123.38,962.88,104.46,963.94,84.04z"/>
		<path d="M549.18,294.59l-40.52,21.57c0,0,9.52,46.61,42.93,86.75c30.84,37.08,65.49,63.12,78.82,63.12c1.11,0,2.05-0.17,2.86-0.53
			c10.61-4.86,10.07-30.21-15.59-82.78C591.99,330.14,549.18,294.59,549.18,294.59z M631.5,456.79c-0.23,0.66-0.61,1.47-1.11,1.84
			c-8.23-0.02-39.66-20.22-73.12-60.46c-25.3-30.42-36.49-65.16-40.03-78.2l30.89-16.43c10.73,9.76,42.52,40.73,62.87,82.43
			C635.55,436.23,632.9,452.88,631.5,456.79z"/>
		<path d="M620.03,258.98l-42.82,21c0,0,11.76,51.9,42.21,88.46c27,32.42,53.07,54.95,66.25,54.95c1.69,0,3.15-0.36,4.39-1.12
			c9.25-5.7,8.68-33.86-14.57-82.02C652.22,292.09,620.03,258.98,620.03,258.98z M686.22,415.92c0,0-0.16,0.06-0.56,0.06
			c-8.19,0-30.64-16.35-60.55-52.28c-23.2-27.84-35.29-65.61-39.23-79.74l32.43-15.89c8.92,10,32.57,38.28,50.5,75.4
			C691.95,391.37,689.58,413.66,686.22,415.92z"/>
		<path d="M1269.54,71.69c-12.3-8.89-19.21-11.9-19.21-11.9l-24.61,13.2c0,0,14.24,16.92,27.3,22.56c7.38,3.19,16.12,4.5,22.72,4.5
			c5.07,0,8.86-0.77,9.81-2.02C1287.92,94.87,1282.75,81.25,1269.54,71.69z M1275.74,93.62c-5.32,0-13.41-1.05-20.18-3.97
			c-6.55-2.84-14.16-9.57-19.46-14.91l14.32-7.67c2.93,1.58,8.17,4.67,15.34,9.85c8.19,5.92,12.04,12.82,13.35,16.53
			C1277.99,93.56,1276.86,93.62,1275.74,93.62z"/>
		<path d="M939.7,167.9l-32.14,6.96c0,0,0.96,32.95,19.66,63.38c18.02,29.3,40.02,50.54,47.95,50.54c0.3,0,0.58-0.03,0.84-0.09
			c7.22-1.73,10.57-30.34-2.25-67.75C960.92,183.52,939.7,167.9,939.7,167.9z M973.46,280.53c-7.06-3.96-24.26-20.69-39.93-46.18
			c-12.78-20.78-16.8-43.15-18.03-53.63l22.19-4.81c5.58,5.17,19.71,20.17,29.05,47.43C976.69,252.38,975.81,273.66,973.46,280.53z"
			/>
		<path d="M1214.13,79.74l-28.75,15.22c0,0,6.99,20.97,19.39,34.32c11.2,12.07,28.76,22.49,35.08,22.49c0.68,0,1.21-0.11,1.62-0.37
			c4.54-2.75,2.07-26.66-8.38-44.93C1223.36,89.47,1214.13,79.74,1214.13,79.74z M1237.23,144.63c-5.88-2.25-18.41-9.66-27.74-19.72
			c-7.75-8.35-13.3-20.23-16.06-26.91l19.18-10.16c3.39,4.14,9.05,11.64,14.89,21.85C1235,122.82,1237.56,138.05,1237.23,144.63z"/>
		<path d="M1168.72,104.41l-32.33,12.96c0,0,7.3,25.13,20.29,40.58c11.82,14.05,29.55,24.17,36.1,24.17c0.65,0,1.19-0.1,1.6-0.3
			c5-2.47,5.85-25.89-4.88-46.35C1179.53,116.41,1168.72,104.41,1168.72,104.41z M1190.16,174.05c-6.04-2.22-18.55-9.86-27.81-20.87
			c-8.02-9.54-13.81-23.5-16.72-31.54l20.82-8.35c3.79,4.83,10.33,13.84,16.49,25.6C1190.62,153.56,1191.13,168.05,1190.16,174.05z"
			/>
		<path d="M1243.07,47.64c0,0,4.05-5.45,4.25-20.61c0.23-16.27-5.95-27.03-9.89-27.03h-0.02c-3.62,0.01-13.94,13.07-17.22,26.91
			c-3.27,13.82,0.08,33.8,0.08,33.8L1243.07,47.64z M1226.47,28.39c2.13-9.02,7.39-16.89,10.6-20.43c1.72,3.1,3.96,9.55,3.82,18.98
			c-0.13,9.23-1.8,14.17-2.58,16l-12.76,7.31C1225.05,43.78,1224.86,35.17,1226.47,28.39z"/>
		<path d="M277.88,485.84l25.64,68.35c0,0,56.35-121.47,112.03-168.17l-2.16-47.08C413.38,338.94,329.78,395.12,277.88,485.84z
			 M304.4,535.43l-18.35-48.91c39.39-67.34,96.81-115.33,120.57-133.46l1.35,29.7C364.13,421.38,321.37,501.44,304.4,535.43z"/>
		<path d="M1314.04,8.98c-0.85-0.98-3.16-1.49-6.4-1.49c-6.9,0-17.97,2.32-27.76,7.29c-14.38,7.28-22.55,23.16-22.55,23.16l4.9,15.7
			c0,0,22.05-3.9,35.62-16.57C1311.34,24.47,1316.94,12.31,1314.04,8.98z M1293.47,32.35c-8.11,7.57-19.98,11.72-26.86,13.62
			l-2.27-7.26c2.6-4.21,9.12-13.46,18.47-18.19c8.96-4.55,18.93-6.58,24.84-6.58h0.01C1306.16,17.56,1302.07,24.31,1293.47,32.35z"
			/>
		<path d="M1183.27,80.02l24.62-12.42c0,0,1.45-12.71-3.44-30.12c-4.94-17.6-14.74-27.67-19.64-27.67c-0.31,0-0.6,0.04-0.86,0.12
			c-4.14,1.24-9.97,18.36-9.02,35.27C1175.89,62.13,1183.27,80.02,1183.27,80.02z M1186,17.22c3.22,2.6,8.87,9.94,12.25,22
			c3.06,10.83,3.46,19.74,3.4,24.32l-14.79,7.47c-2.13-6.39-4.95-16.52-5.49-26.16C1180.7,32.75,1183.77,21.72,1186,17.22z"/>
		<path d="M743.65,189.17c0,0,10.89-38.51,0.67-85.59c-9.69-44.74-23.08-65.77-32.33-65.77c-0.48,0-0.97,0.07-1.43,0.18
			c-9.07,2.29-19.52,39.32-20.53,82.39c-1.03,43.07,17.12,80.19,17.12,80.19L743.65,189.17z M697.42,120.53
			c0.96-40.45,10.03-69.52,15.02-75.07c3.58,2.09,15.14,15.86,24.65,59.68c7.87,36.3,2.6,67.64,0.32,78.21l-26.14,8.16
			C706.5,179.77,696.68,151.66,697.42,120.53z"/>
		<path d="M679.04,209.29c0,0,8.82-46.63-3.82-97.6c-11.82-47.65-25.07-66.3-35.06-66.3c-0.7,0-1.37,0.09-2.04,0.27
			c-9.98,2.68-20.46,43.16-20.37,90c0.1,46.83,21.86,88.43,21.86,88.43L679.04,209.29z M640.31,52.8L640.31,52.8
			c3.55,0.34,15.62,11.89,27.72,60.67c9.98,40.26,6.06,78.21,4.35,90.4l-28.99,10.88c-5.7-12.8-18.15-44.72-18.22-79.11
			C625.06,89.66,634.94,57.39,640.31,52.8z"/>
		<path d="M1162.31,87.71c0,0,5.03-18.43,0.82-39.38c-4.34-21.55-15.29-34.36-20.99-34.36c-0.25,0-0.5,0.02-0.74,0.08
			c-4.99,1.1-13.36,20.75-13.75,40.77c-0.39,20.02,7.48,43.14,7.48,43.14L1162.31,87.71z M1135.05,54.97
			c0.29-14.55,5.01-27.41,8.05-32.42c3.33,3.1,9.64,11.78,12.76,27.25c2.77,13.72,1.15,26.44,0.06,32.41l-15.96,6.01
			C1137.8,80.18,1134.83,66.85,1135.05,54.97z"/>
		<path d="M1000.65,153.71l-33.11,8.03c0,0,0.97,32.23,19.06,59.36c17.17,25.74,40.02,42.76,47.88,42.76c0.41,0,0.8-0.05,1.13-0.15
			c6.65-1.98,8.24-25.62-4.57-59.52C1018.24,170.3,1000.65,153.71,1000.65,153.71z M1032.55,255.84
			c-7.11-3.05-25.16-16.92-39.79-38.85c-12.22-18.3-16.1-39.46-17.3-49.54l22.73-5.5c5.17,5.86,16.84,20.81,25.93,44.86
			C1034.07,233.17,1034,250.1,1032.55,255.84z"/>
		<path d="M568.24,254.91l40.84-18.23c0,0,7.25-50.25-8.63-104.14c-14.67-49.79-29.53-69.25-40.18-69.25c-0.88,0-1.72,0.13-2.54,0.4
			c-10.55,3.32-19.87,47.08-17.59,97.14C542.43,210.88,568.24,254.91,568.24,254.91z M560.21,70.7h0.06
			c3.96,0,17.63,11.49,33.08,63.93c12.7,43.08,10.09,84.31,8.85,97.01l-30.69,13.7c-6.75-13.27-22.27-47.5-23.97-84.84
			C545.26,110.38,554.6,75.32,560.21,70.7z"/>
		<path d="M810.63,171.96c0,0,10.23-31.23,0.71-74.97c-9.12-41.87-24.39-64.93-33.22-64.93c-0.39,0-0.78,0.04-1.15,0.14
			c-8.43,2.13-18.08,36.55-19,76.57c-0.91,40.02,17.2,72.32,17.2,72.32L810.63,171.96z M765.38,108.92
			c0.83-36.24,8.78-62.88,13.4-68.96c4.75,3.3,17.02,20.48,25.33,58.61c7.09,32.56,2.66,58.02,0.49,67.29l-25.44,6.55
			C774.43,162.16,764.72,137.44,765.38,108.92z"/>
		<path d="M1059.08,139.45l-30.54,7.88c0,0,1.31,28.51,16.11,52.55c13.81,22.45,35.32,36.5,43.21,36.5c0.57,0,1.05-0.06,1.47-0.21
			c6.39-2.22,9.66-23.77-1.33-53.82C1077.74,154.39,1059.08,139.45,1059.08,139.45z M1086.4,228.69
			c-6.24-1.95-23.51-13.29-35.45-32.69c-9.71-15.77-13.2-33.93-14.41-43.08l20.56-5.3c5.16,4.98,16.75,17.68,23.94,37.29
			C1089.34,207.59,1088.43,223.7,1086.4,228.69z"/>
		<path d="M1115.32,124.56l-32.57,9.06c0,0,5.41,26.13,18.47,46.27c12.07,18.64,32.4,30.16,39.95,30.16c0.61,0,1.13-0.07,1.57-0.22
			c6.29-2.22,8.32-19.98-1.3-45.76C1132.49,140.08,1115.32,124.56,1115.32,124.56z M1139.77,202.42
			c-5.88-1.51-22.12-10.8-32.34-26.55c-8.25-12.75-13.32-28.34-15.74-37.04l21.45-5.97c4.95,5.25,15.27,17.49,21.35,33.8
			C1141.87,186.43,1141.16,198.54,1139.77,202.42z"/>
	</g>
</g>
</svg>
